<svg width="70" height="72" viewBox="0 0 70 72" fill="none" xmlns="http://www.w3.org/2000/svg">
<path d="M66.0105 48.04C61.218 60.3366 49.3012 69.04 35.3686 69.04C21.436 69.04 9.51919 60.3366 4.72669 48.04H2.6317C7.51979 61.4385 20.3323 71 35.3686 71C50.4049 71 63.2174 61.4385 68.1055 48.04H66.0105Z" fill="white"/>
<path d="M4.12391 25.64C8.45163 12.4637 20.8096 2.96 35.3686 2.96C49.9276 2.96 62.2856 12.4637 66.6133 25.64H68.6704C64.2723 11.3679 51.0262 1 35.3686 1C19.711 1 6.46485 11.3679 2.0668 25.64H4.12391Z" fill="white"/>
<path d="M6.23264 44.4H4.53612V30.2964H1V30.092H9.7892V30.2964H6.23264V44.4Z" fill="white"/>
<path d="M27.0029 44.4H26.7576L32.8692 30.092L33.094 29.9898L38.2449 44.4H36.5075L34.9132 39.9032H28.9447L27.0029 44.4ZM32.2355 32.2995L29.0264 39.6988H34.8518L32.2355 32.2995Z" fill="white"/>
<path d="M56.6367 37.5935C56.6367 35.1134 57.2363 33.2329 58.4354 31.952C59.6482 30.6575 61.2017 30.0102 63.0958 30.0102C64.9899 30.0102 66.4956 30.5689 67.613 31.6863C68.744 32.8037 69.3095 34.5888 69.3095 37.0416C69.3095 39.4944 68.71 41.3476 67.5108 42.6013C66.3117 43.8549 64.7105 44.4818 62.7074 44.4818C60.9768 44.4818 59.5596 43.9844 58.4559 42.9896C57.8836 42.4718 57.4339 41.7564 57.1068 40.8434C56.7934 39.9168 56.6367 38.8335 56.6367 37.5935ZM63.0344 30.2146C61.6582 30.2146 60.5271 30.8278 59.6414 32.0542C58.7693 33.2806 58.3332 35.0794 58.3332 37.4504C58.3332 39.8214 58.7489 41.552 59.5801 42.6422C60.4113 43.7323 61.5151 44.2774 62.8914 44.2774C64.2813 44.2774 65.4123 43.6642 66.2844 42.4378C67.1701 41.1977 67.613 39.4058 67.613 37.062C67.613 34.7046 67.1906 32.974 66.3457 31.8703C65.5145 30.7665 64.4107 30.2146 63.0344 30.2146Z" fill="white"/>
<path d="M66.0105 48.04C61.218 60.3366 49.3012 69.04 35.3686 69.04C21.436 69.04 9.51919 60.3366 4.72669 48.04H2.6317C7.51979 61.4385 20.3323 71 35.3686 71C50.4049 71 63.2174 61.4385 68.1055 48.04H66.0105Z" stroke="white"/>
<path d="M4.12391 25.64C8.45163 12.4637 20.8096 2.96 35.3686 2.96C49.9276 2.96 62.2856 12.4637 66.6133 25.64H68.6704C64.2723 11.3679 51.0262 1 35.3686 1C19.711 1 6.46485 11.3679 2.0668 25.64H4.12391Z" stroke="white"/>
<path d="M6.23264 44.4H4.53612V30.2964H1V30.092H9.7892V30.2964H6.23264V44.4Z" stroke="white"/>
<path d="M27.0029 44.4H26.7576L32.8692 30.092L33.094 29.9898L38.2449 44.4H36.5075L34.9132 39.9032H28.9447L27.0029 44.4ZM32.2355 32.2995L29.0264 39.6988H34.8518L32.2355 32.2995Z" stroke="white"/>
<path d="M56.6367 37.5935C56.6367 35.1134 57.2363 33.2329 58.4354 31.952C59.6482 30.6575 61.2017 30.0102 63.0958 30.0102C64.9899 30.0102 66.4956 30.5689 67.613 31.6863C68.744 32.8037 69.3095 34.5888 69.3095 37.0416C69.3095 39.4944 68.71 41.3476 67.5108 42.6013C66.3117 43.8549 64.7105 44.4818 62.7074 44.4818C60.9768 44.4818 59.5596 43.9844 58.4559 42.9896C57.8836 42.4718 57.4339 41.7564 57.1068 40.8434C56.7934 39.9168 56.6367 38.8335 56.6367 37.5935ZM63.0344 30.2146C61.6582 30.2146 60.5271 30.8278 59.6414 32.0542C58.7693 33.2806 58.3332 35.0794 58.3332 37.4504C58.3332 39.8214 58.7489 41.552 59.5801 42.6422C60.4113 43.7323 61.5151 44.2774 62.8914 44.2774C64.2813 44.2774 65.4123 43.6642 66.2844 42.4378C67.1701 41.1977 67.613 39.4058 67.613 37.062C67.613 34.7046 67.1906 32.974 66.3457 31.8703C65.5145 30.7665 64.4107 30.2146 63.0344 30.2146Z" stroke="white"/>
</svg>
