<svg width="200" height="200" viewBox="0 0 200 200" fill="none" xmlns="http://www.w3.org/2000/svg">
<circle cx="100" cy="100" r="96" stroke="white" stroke-width="8"/>
<path d="M38.0974 145.14C34.9686 145.14 32.3949 144.232 30.3762 142.415C28.4586 140.598 27.7016 137.873 28.1053 134.24C28.2062 132.927 28.509 131.565 29.0137 130.152C29.6193 128.638 30.2753 127.174 30.9818 125.761C31.5874 124.348 32.193 123.642 32.7986 123.642C33.3032 123.642 33.3537 124.046 32.95 124.853C31.6379 127.578 30.9818 130 30.9818 132.12C30.9818 134.34 31.7388 136.006 33.2528 137.116C34.8676 138.226 36.9367 138.781 39.46 138.781C44.4056 138.781 49.8558 137.217 55.8107 134.088C61.7655 130.858 67.9223 126.771 74.2809 121.825C80.6395 116.779 86.7458 111.53 92.5997 106.08C88.6635 105.878 84.9795 105.676 81.5479 105.474C78.1162 105.273 75.0883 105.172 72.4642 105.172C70.2437 105.172 67.569 105.373 64.4402 105.777C61.3114 106.181 58.889 107.241 57.1732 108.957C56.4667 109.663 55.8107 110.723 55.2051 112.136C54.7004 113.448 54.4481 114.81 54.4481 116.223C54.4481 116.627 54.4481 117.031 54.4481 117.435C54.549 117.737 54.65 118.091 54.7509 118.494C54.3472 118.293 53.5902 118.141 52.48 118.04C51.4707 117.838 50.8146 117.182 50.5118 116.072C50.4109 115.769 50.3604 115.265 50.3604 114.558C50.3604 112.943 50.966 111.631 52.1772 110.622C53.3883 109.512 54.8518 108.553 56.5676 107.745C58.2835 106.938 59.8479 106.231 61.2609 105.626C64.5916 104.213 68.0232 103.052 71.5558 102.144C75.0883 101.235 78.6714 100.781 82.3049 100.781C86.443 100.781 91.5904 100.933 97.7472 101.235C102.491 96.5926 106.881 92.2021 110.919 88.064C114.956 83.9258 118.236 80.4942 120.759 77.7691C124.292 74.0347 128.026 70.8554 131.963 68.2312C136 65.506 140.087 63.5884 144.226 62.4781H135.899C132.366 62.4781 128.531 62.6295 124.393 62.9323C120.255 63.2351 116.369 63.8912 112.735 64.9005C109.102 65.9098 106.074 67.4237 103.652 69.4423C102.138 70.7544 100.977 72.2684 100.169 73.9842C99.463 75.5991 99.1097 77.113 99.1097 78.526C99.1097 80.4437 99.6649 81.7558 100.775 82.4623C100.876 82.4623 100.926 82.5128 100.926 82.6137C100.926 82.9165 100.573 83.2698 99.8667 83.6735C99.1602 83.9763 98.6556 84.0267 98.3528 83.8249C97.3435 83.1184 96.4351 81.7053 95.6276 79.5858C94.9211 77.3654 94.6688 75.5991 94.8707 74.287C95.3753 71.1581 96.7379 68.6349 98.9583 66.7172C101.28 64.6986 104.106 63.1342 107.436 62.0239C110.868 60.9137 114.451 60.1567 118.186 59.753C122.021 59.3493 125.654 59.097 129.086 58.996C132.619 58.8951 135.596 58.8447 138.018 58.8447H154.52C154.722 58.8447 154.773 58.8951 154.672 58.996C157.195 57.8858 159.819 56.7756 162.544 55.6653C165.37 54.5551 167.793 54 169.811 54C170.316 54 170.821 54.1514 171.325 54.4542C171.931 54.757 172.234 55.0598 172.234 55.3626C172.234 55.8672 171.224 56.1195 169.206 56.1195C168.196 56.1195 167.137 56.3214 166.026 56.7251C165.017 57.0279 163.655 58.0877 161.939 59.9044C160.526 61.3174 158.759 63.5884 156.64 66.7172C154.52 69.846 152.199 73.53 149.676 77.7691C147.153 81.9072 144.629 86.3481 142.106 91.0919C139.583 95.7347 137.16 100.327 134.839 104.869C132.518 109.411 130.499 113.599 128.783 117.435C128.581 118.04 128.026 119.453 127.118 121.674C126.21 123.793 125.352 126.165 124.544 128.789C123.737 131.313 123.333 133.583 123.333 135.602C123.333 138.327 124.292 139.69 126.21 139.69C127.118 139.69 128.026 139.488 128.935 139.084C130.247 138.58 131.609 137.823 133.022 136.813C134.435 135.804 135.798 134.643 137.11 133.331C139.734 130.808 141.955 128.386 143.771 126.064C145.588 123.642 146.698 122.178 147.102 121.674C147.405 121.169 147.758 120.917 148.162 120.917C148.566 120.917 148.767 121.169 148.767 121.674C148.767 121.977 148.616 122.38 148.313 122.885C147.607 123.894 146.295 125.66 144.377 128.184C142.459 130.606 140.188 133.079 137.564 135.602C135.041 138.125 132.316 140.043 129.389 141.355C128.48 141.759 127.522 142.062 126.512 142.263C125.503 142.566 124.494 142.718 123.484 142.718C121.466 142.718 119.599 142.011 117.883 140.598C116.268 139.185 115.46 136.864 115.46 133.634C115.46 130.707 116.016 127.578 117.126 124.247C118.337 120.816 119.447 118.04 120.456 115.921C122.475 111.581 124.847 106.736 127.572 101.387C130.398 96.0374 133.275 90.6881 136.202 85.3388C139.23 79.9895 142.005 75.1449 144.528 70.8049C147.052 66.4649 149.121 63.2351 150.736 61.1156C149.121 61.1156 146.951 61.7716 144.226 63.0837C141.5 64.2949 138.573 65.9602 135.445 68.0798C132.417 70.0984 129.591 72.4702 126.966 75.1954C123.838 78.4251 120.204 82.3614 116.066 87.0042C112.029 91.647 107.638 96.4916 102.895 101.538C105.216 101.639 107.537 101.74 109.859 101.841C112.18 101.841 114.502 101.841 116.823 101.841C118.438 101.841 120.204 101.69 122.122 101.387C124.14 100.983 126.008 100.377 127.723 99.57C127.723 99.57 127.421 100.125 126.815 101.235C126.31 102.245 125.402 103.304 124.09 104.415C122.879 105.424 121.213 106.03 119.094 106.231C117.176 106.332 115.259 106.433 113.341 106.534C111.423 106.534 109.506 106.534 107.588 106.534C105.973 106.534 104.358 106.534 102.743 106.534C101.229 106.534 99.7153 106.484 98.2014 106.383C93.5586 111.227 88.7139 115.971 83.6674 120.614C78.6209 125.156 73.5239 129.294 68.3765 133.028C63.229 136.763 58.0816 139.69 52.9342 141.809C47.8876 144.03 42.9421 145.14 38.0974 145.14Z" fill="white"/>
</svg>
